# xmcd
#
# Track frame offsets:
#	150
#	13945
#	28575
#	43791
#	57655
#	72257
#	85494
#	101838
#	113946
#	126820
#	141548
#	167188
#
# Disc length: 2538 seconds
#
# Revision: 0
# Processed by: cddbd v1.5PL3 Copyright (c) Steve Scherf et al.
# Submitted via: dBpowerAMP V4.0
#
DISCID=b809e80c
DTITLE=Alanna Myrol - Long and Restless Nights
DYEAR=1900
DGENRE=Country
TTITLE0=It's Too Late
TTITLE1=And I Dream
TTITLE2=Long And Restless Nights
TTITLE3=Best Of Friends
TTITLE4=Burned By An Old Flame
TTITLE5=Don't Make Me Fall
TTITLE6=It's A Fine Line
TTITLE7=Never Should Have Fallen
TTITLE8=Running Shoes
TTITLE9=Take Me Back
TTITLE10=Traces Of Everywhere
TTITLE11=DATA
EXTD=
EXTT0=
EXTT1=
EXTT2=
EXTT3=
EXTT4=
EXTT5=
EXTT6=
EXTT7=
EXTT8=
EXTT9=
EXTT10=
EXTT11=
PLAYORDER=
